::General::
Complete name: Resident Evil Retribution 2012 1080p x264 BrRip Dual-Audio [English 5.1 - Hindi 5.1] NimitMak SilverRG
Format: Matroska
File size: 1.92 GiB
Duration: 1h 35mn
Overall Bitrate: 2881 Kbps
Language: Dual-Audio [Eng-Hin]
Sub Title: English
Encoder: NimitMak

::IMDB INFO::
IMDB Link:http://www.imdb.com/title/tt1855325/
IMDB Rating:5.2/10
Release Date:28 September 2012 (India)
Genre: Action | Horror | Sci-Fi 

::Video::
Format/Info: Advanced Video Codec
Bitrate: 1799 Kbps
Width: 1920 pixels
Height: 800 pixels
Display aspect ratio: 2.40:1
Frame rate: 23.976 fps

::Audio #1::
ID: 2
Format : AC-3
Format/Info: Audio Coding 3
Duration : 1h 35mn
Bit rate mode: Constant
Bit rate: 640 Kbps
Channel(s): 6 channels
Channel positions: Front: L C R, Side: L R, LFE
Sampling rate: 48.0 KHz
Bit depth: 16 bits
Compression mode: Lossy
Stream size : 438 MiB (22%)
Title: Hindi - NimitMak SilverRG

::Audio #2::
ID: 3
Format: AC-3
Format/Info: Audio Coding 3
Duration: 1h 35mn
Bit rate mode: Constant
Bit rate: 448 Kbps
Channel(s): 6 channels
Channel positions: Front: L C R, Side: L R, LFE
Sampling rate : 48.0 KHz
Bit depth: 16 bits
Compression mode: Lossy
Stream size: 306 MiB (16%)
Title: English - NimitMak SilverRG

::Text::
ID: 4
Format: UTF-8
Codec ID: S_TEXT/UTF8
Codec ID/Info: UTF-8 Plain Text
Title: English - NimitMak SilverRG

Screens : 
 
http://i.imgbox.com/abfrdgd4 
http://i.imgbox.com/abwqid9n 
http://i.imgbox.com/accHFP2d 
http://i.imgbox.com/acmcLviM 
http://i.imgbox.com/adg9N9zZ 
http://i.imgbox.com/accHZR4d 
http://i.imgbox.com/accesCqr 
http://i.imgbox.com/adjoQ3uP 
http://i.imgbox.com/abqpyj9H 
http://i.imgbox.com/adfNC87K 
http://i.imgbox.com/adqiYWCr 
http://i.imgbox.com/abhk7v19